<mxfile host="Electron" modified="2024-04-22T07:37:46.035Z" agent="Mozilla/5.0 (Macintosh; Intel Mac OS X 10_15_7) AppleWebKit/537.36 (KHTML, like Gecko) draw.io/24.2.5 Chrome/120.0.6099.109 Electron/28.1.0 Safari/537.36" etag="5q-5OULLh5BFmBnlNH3R" version="24.2.5" type="device" pages="3">
  <diagram name="Java线程状态" id="059jrwPkBBbGATxybq4v">
    <mxGraphModel dx="2074" dy="1214" grid="1" gridSize="10" guides="1" tooltips="1" connect="1" arrows="1" fold="1" page="1" pageScale="1" pageWidth="827" pageHeight="1169" math="0" shadow="0">
      <root>
        <mxCell id="0" />
        <mxCell id="1" parent="0" />
        <mxCell id="rlsqRelBSDRR1rkJFNe5-25" style="edgeStyle=orthogonalEdgeStyle;rounded=0;orthogonalLoop=1;jettySize=auto;html=1;" parent="1" source="rlsqRelBSDRR1rkJFNe5-18" target="rlsqRelBSDRR1rkJFNe5-6" edge="1">
          <mxGeometry relative="1" as="geometry" />
        </mxCell>
        <mxCell id="rlsqRelBSDRR1rkJFNe5-32" style="edgeStyle=orthogonalEdgeStyle;rounded=0;orthogonalLoop=1;jettySize=auto;html=1;entryX=0;entryY=0.25;entryDx=0;entryDy=0;" parent="1" source="rlsqRelBSDRR1rkJFNe5-18" target="rlsqRelBSDRR1rkJFNe5-26" edge="1">
          <mxGeometry relative="1" as="geometry">
            <Array as="points">
              <mxPoint x="550" y="520" />
              <mxPoint x="550" y="520" />
            </Array>
          </mxGeometry>
        </mxCell>
        <mxCell id="rlsqRelBSDRR1rkJFNe5-37" style="rounded=0;orthogonalLoop=1;jettySize=auto;html=1;exitX=0.859;exitY=0.996;exitDx=0;exitDy=0;entryX=0;entryY=0;entryDx=0;entryDy=0;exitPerimeter=0;" parent="1" source="rlsqRelBSDRR1rkJFNe5-18" target="rlsqRelBSDRR1rkJFNe5-7" edge="1">
          <mxGeometry relative="1" as="geometry" />
        </mxCell>
        <mxCell id="rlsqRelBSDRR1rkJFNe5-42" style="rounded=0;orthogonalLoop=1;jettySize=auto;html=1;entryX=1;entryY=0.75;entryDx=0;entryDy=0;exitX=0.002;exitY=0.548;exitDx=0;exitDy=0;exitPerimeter=0;endArrow=none;endFill=0;startArrow=classic;startFill=1;" parent="1" source="rlsqRelBSDRR1rkJFNe5-18" target="rlsqRelBSDRR1rkJFNe5-8" edge="1">
          <mxGeometry relative="1" as="geometry" />
        </mxCell>
        <mxCell id="rlsqRelBSDRR1rkJFNe5-18" value="" style="rounded=1;whiteSpace=wrap;html=1;fillColor=#d5e8d4;strokeColor=#82b366;glass=0;shadow=0;" parent="1" vertex="1">
          <mxGeometry x="310" y="420" width="210" height="220" as="geometry" />
        </mxCell>
        <mxCell id="rlsqRelBSDRR1rkJFNe5-20" style="edgeStyle=orthogonalEdgeStyle;rounded=0;orthogonalLoop=1;jettySize=auto;html=1;" parent="1" target="rlsqRelBSDRR1rkJFNe5-3" edge="1">
          <mxGeometry relative="1" as="geometry">
            <mxPoint x="415.0000000000002" y="230" as="sourcePoint" />
          </mxGeometry>
        </mxCell>
        <mxCell id="rlsqRelBSDRR1rkJFNe5-21" value="实例化" style="edgeLabel;html=1;align=center;verticalAlign=middle;resizable=0;points=[];" parent="rlsqRelBSDRR1rkJFNe5-20" vertex="1" connectable="0">
          <mxGeometry x="-0.2872" y="-1" relative="1" as="geometry">
            <mxPoint x="27" as="offset" />
          </mxGeometry>
        </mxCell>
        <mxCell id="rlsqRelBSDRR1rkJFNe5-1" value="" style="ellipse;fillColor=strokeColor;html=1;" parent="1" vertex="1">
          <mxGeometry x="399" y="200" width="30" height="30" as="geometry" />
        </mxCell>
        <mxCell id="rlsqRelBSDRR1rkJFNe5-23" style="edgeStyle=orthogonalEdgeStyle;rounded=0;orthogonalLoop=1;jettySize=auto;html=1;" parent="1" source="rlsqRelBSDRR1rkJFNe5-3" target="rlsqRelBSDRR1rkJFNe5-18" edge="1">
          <mxGeometry relative="1" as="geometry" />
        </mxCell>
        <mxCell id="rlsqRelBSDRR1rkJFNe5-24" value="Thread.start()" style="edgeLabel;html=1;align=center;verticalAlign=middle;resizable=0;points=[];" parent="rlsqRelBSDRR1rkJFNe5-23" vertex="1" connectable="0">
          <mxGeometry x="-0.0291" y="2" relative="1" as="geometry">
            <mxPoint x="36" as="offset" />
          </mxGeometry>
        </mxCell>
        <mxCell id="rlsqRelBSDRR1rkJFNe5-3" value="初始&lt;div&gt;NEW&lt;/div&gt;" style="html=1;align=center;verticalAlign=top;rounded=1;absoluteArcSize=1;arcSize=10;dashed=0;whiteSpace=wrap;fillColor=#d5e8d4;strokeColor=#82b366;" parent="1" vertex="1">
          <mxGeometry x="345" y="290" width="140" height="40" as="geometry" />
        </mxCell>
        <mxCell id="rlsqRelBSDRR1rkJFNe5-10" style="edgeStyle=orthogonalEdgeStyle;rounded=0;orthogonalLoop=1;jettySize=auto;html=1;exitX=0.25;exitY=0;exitDx=0;exitDy=0;entryX=0.25;entryY=1;entryDx=0;entryDy=0;" parent="1" source="rlsqRelBSDRR1rkJFNe5-4" target="rlsqRelBSDRR1rkJFNe5-5" edge="1">
          <mxGeometry relative="1" as="geometry" />
        </mxCell>
        <mxCell id="rlsqRelBSDRR1rkJFNe5-11" value="系统调度" style="edgeLabel;html=1;align=center;verticalAlign=middle;resizable=0;points=[];labelBackgroundColor=none;" parent="rlsqRelBSDRR1rkJFNe5-10" vertex="1" connectable="0">
          <mxGeometry x="-0.0909" y="2" relative="1" as="geometry">
            <mxPoint x="-27" as="offset" />
          </mxGeometry>
        </mxCell>
        <mxCell id="rlsqRelBSDRR1rkJFNe5-4" value="就绪&lt;div&gt;READY&lt;/div&gt;" style="html=1;align=center;verticalAlign=top;rounded=1;absoluteArcSize=1;arcSize=10;dashed=0;whiteSpace=wrap;fillColor=#e51400;fontColor=#ffffff;strokeColor=#B20000;" parent="1" vertex="1">
          <mxGeometry x="344" y="585" width="140" height="40" as="geometry" />
        </mxCell>
        <mxCell id="rlsqRelBSDRR1rkJFNe5-12" style="edgeStyle=orthogonalEdgeStyle;rounded=0;orthogonalLoop=1;jettySize=auto;html=1;exitX=0.75;exitY=1;exitDx=0;exitDy=0;entryX=0.75;entryY=0;entryDx=0;entryDy=0;" parent="1" source="rlsqRelBSDRR1rkJFNe5-5" target="rlsqRelBSDRR1rkJFNe5-4" edge="1">
          <mxGeometry relative="1" as="geometry" />
        </mxCell>
        <mxCell id="rlsqRelBSDRR1rkJFNe5-13" value="yield()&lt;div&gt;系统调度&lt;/div&gt;" style="edgeLabel;html=1;align=center;verticalAlign=middle;resizable=0;points=[];labelBackgroundColor=none;" parent="rlsqRelBSDRR1rkJFNe5-12" vertex="1" connectable="0">
          <mxGeometry x="-0.4182" relative="1" as="geometry">
            <mxPoint x="31" y="18" as="offset" />
          </mxGeometry>
        </mxCell>
        <mxCell id="rlsqRelBSDRR1rkJFNe5-5" value="运行中&lt;div&gt;RUNNING&lt;/div&gt;" style="html=1;align=center;verticalAlign=top;rounded=1;absoluteArcSize=1;arcSize=10;dashed=0;whiteSpace=wrap;fillColor=#e51400;strokeColor=#B20000;fontColor=#ffffff;" parent="1" vertex="1">
          <mxGeometry x="344" y="470" width="140" height="40" as="geometry" />
        </mxCell>
        <mxCell id="rlsqRelBSDRR1rkJFNe5-15" style="edgeStyle=orthogonalEdgeStyle;rounded=0;orthogonalLoop=1;jettySize=auto;html=1;exitX=0.5;exitY=1;exitDx=0;exitDy=0;" parent="1" source="rlsqRelBSDRR1rkJFNe5-6" target="rlsqRelBSDRR1rkJFNe5-14" edge="1">
          <mxGeometry relative="1" as="geometry" />
        </mxCell>
        <mxCell id="rlsqRelBSDRR1rkJFNe5-6" value="终止&lt;div&gt;TERMINATED&lt;/div&gt;" style="html=1;align=center;verticalAlign=top;rounded=1;absoluteArcSize=1;arcSize=10;dashed=0;whiteSpace=wrap;fillColor=#d5e8d4;strokeColor=#82b366;" parent="1" vertex="1">
          <mxGeometry x="345" y="730" width="140" height="40" as="geometry" />
        </mxCell>
        <mxCell id="rlsqRelBSDRR1rkJFNe5-39" style="rounded=0;orthogonalLoop=1;jettySize=auto;html=1;exitX=0;exitY=0.75;exitDx=0;exitDy=0;elbow=vertical;" parent="1" source="rlsqRelBSDRR1rkJFNe5-7" edge="1">
          <mxGeometry relative="1" as="geometry">
            <mxPoint x="470" y="640" as="targetPoint" />
          </mxGeometry>
        </mxCell>
        <mxCell id="rlsqRelBSDRR1rkJFNe5-40" value="获取到锁" style="edgeLabel;html=1;align=center;verticalAlign=middle;resizable=0;points=[];" parent="rlsqRelBSDRR1rkJFNe5-39" vertex="1" connectable="0">
          <mxGeometry x="-0.3196" y="-2" relative="1" as="geometry">
            <mxPoint y="26" as="offset" />
          </mxGeometry>
        </mxCell>
        <mxCell id="rlsqRelBSDRR1rkJFNe5-7" value="阻塞&lt;div&gt;BLOCKED&lt;/div&gt;" style="html=1;align=center;verticalAlign=top;rounded=1;absoluteArcSize=1;arcSize=10;dashed=0;whiteSpace=wrap;fillColor=#d5e8d4;strokeColor=#82b366;" parent="1" vertex="1">
          <mxGeometry x="650" y="730" width="140" height="40" as="geometry" />
        </mxCell>
        <mxCell id="rlsqRelBSDRR1rkJFNe5-8" value="等待&lt;div&gt;WAITING&lt;/div&gt;" style="html=1;align=center;verticalAlign=top;rounded=1;absoluteArcSize=1;arcSize=10;dashed=0;whiteSpace=wrap;fillColor=#d5e8d4;strokeColor=#82b366;" parent="1" vertex="1">
          <mxGeometry x="10" y="510" width="140" height="40" as="geometry" />
        </mxCell>
        <mxCell id="rlsqRelBSDRR1rkJFNe5-14" value="" style="ellipse;html=1;shape=endState;fillColor=strokeColor;" parent="1" vertex="1">
          <mxGeometry x="400" y="800" width="30" height="30" as="geometry" />
        </mxCell>
        <mxCell id="rlsqRelBSDRR1rkJFNe5-19" value="运行&lt;div&gt;RUNNABLE&lt;/div&gt;" style="text;html=1;align=center;verticalAlign=middle;whiteSpace=wrap;rounded=0;" parent="1" vertex="1">
          <mxGeometry x="384" y="430" width="60" height="30" as="geometry" />
        </mxCell>
        <mxCell id="rlsqRelBSDRR1rkJFNe5-26" value="超时等待&lt;div&gt;TIME_WAITING&lt;/div&gt;" style="html=1;align=center;verticalAlign=top;rounded=1;absoluteArcSize=1;arcSize=10;dashed=0;whiteSpace=wrap;fillColor=#d5e8d4;strokeColor=#82b366;" parent="1" vertex="1">
          <mxGeometry x="650" y="510" width="140" height="40" as="geometry" />
        </mxCell>
        <mxCell id="rlsqRelBSDRR1rkJFNe5-33" style="edgeStyle=orthogonalEdgeStyle;rounded=0;orthogonalLoop=1;jettySize=auto;html=1;exitX=0;exitY=0.75;exitDx=0;exitDy=0;" parent="1" source="rlsqRelBSDRR1rkJFNe5-26" edge="1">
          <mxGeometry relative="1" as="geometry">
            <mxPoint x="520" y="540" as="targetPoint" />
          </mxGeometry>
        </mxCell>
        <mxCell id="rlsqRelBSDRR1rkJFNe5-34" value="&lt;div&gt;Thread.sleep(long)&lt;/div&gt;&lt;div&gt;Object.wait(long)&lt;/div&gt;&lt;div&gt;Thread.join(long)&lt;/div&gt;&lt;div&gt;LockSupport.parkNanos()&lt;/div&gt;&lt;div&gt;LockSupport.parkUntil()&lt;/div&gt;" style="text;html=1;align=left;verticalAlign=middle;whiteSpace=wrap;rounded=0;spacing=2;" parent="1" vertex="1">
          <mxGeometry x="530" y="420" width="150" height="90" as="geometry" />
        </mxCell>
        <mxCell id="rlsqRelBSDRR1rkJFNe5-35" value="&lt;div&gt;Object.notify()&lt;/div&gt;&lt;div&gt;Object.notifyAll()&lt;/div&gt;&lt;div&gt;LockSupport.unpark(Thread)&lt;/div&gt;&lt;div&gt;超时时间到&lt;/div&gt;" style="text;html=1;align=left;verticalAlign=middle;whiteSpace=wrap;rounded=0;" parent="1" vertex="1">
          <mxGeometry x="530" y="550" width="165" height="65" as="geometry" />
        </mxCell>
        <mxCell id="rlsqRelBSDRR1rkJFNe5-38" value="&lt;div&gt;等待进入 synchronized 方法&lt;/div&gt;&lt;div&gt;等待进入 synchronized 块&lt;/div&gt;" style="text;html=1;align=left;verticalAlign=middle;whiteSpace=wrap;rounded=0;" parent="1" vertex="1">
          <mxGeometry x="610" y="680" width="160" height="30" as="geometry" />
        </mxCell>
        <mxCell id="rlsqRelBSDRR1rkJFNe5-41" style="edgeStyle=orthogonalEdgeStyle;rounded=0;orthogonalLoop=1;jettySize=auto;html=1;exitX=1;exitY=0.25;exitDx=0;exitDy=0;entryX=0;entryY=0.454;entryDx=0;entryDy=0;entryPerimeter=0;startArrow=classic;startFill=1;endArrow=none;endFill=0;" parent="1" source="rlsqRelBSDRR1rkJFNe5-8" target="rlsqRelBSDRR1rkJFNe5-18" edge="1">
          <mxGeometry relative="1" as="geometry" />
        </mxCell>
        <mxCell id="rlsqRelBSDRR1rkJFNe5-43" value="&lt;div&gt;Object.wait()&lt;/div&gt;&lt;div&gt;Object.join()&lt;/div&gt;&lt;div&gt;LockSupport.park()&lt;/div&gt;" style="text;html=1;align=left;verticalAlign=middle;whiteSpace=wrap;rounded=0;" parent="1" vertex="1">
          <mxGeometry x="160" y="470" width="110" height="50" as="geometry" />
        </mxCell>
        <mxCell id="rlsqRelBSDRR1rkJFNe5-44" value="&lt;div&gt;Object.notify()&lt;/div&gt;&lt;div&gt;Object.notifyAll()&lt;/div&gt;&lt;div&gt;LockSupport.unpark(Thread)&lt;/div&gt;" style="text;html=1;align=left;verticalAlign=middle;whiteSpace=wrap;rounded=0;" parent="1" vertex="1">
          <mxGeometry x="150" y="550" width="160" height="50" as="geometry" />
        </mxCell>
        <mxCell id="rlsqRelBSDRR1rkJFNe5-45" value="操作系统运行状态" style="html=1;align=center;verticalAlign=middle;rounded=1;absoluteArcSize=1;arcSize=10;dashed=0;whiteSpace=wrap;fillColor=#e51400;strokeColor=#B20000;fontColor=#ffffff;" parent="1" vertex="1">
          <mxGeometry x="20" y="220" width="140" height="40" as="geometry" />
        </mxCell>
        <mxCell id="rlsqRelBSDRR1rkJFNe5-46" value="Java 线程状态" style="html=1;align=center;verticalAlign=middle;rounded=1;absoluteArcSize=1;arcSize=10;dashed=0;whiteSpace=wrap;fillColor=#d5e8d4;strokeColor=#82b366;" parent="1" vertex="1">
          <mxGeometry x="20" y="280" width="140" height="40" as="geometry" />
        </mxCell>
      </root>
    </mxGraphModel>
  </diagram>
  <diagram id="PSjd64snoY_Lt2U9Fvqu" name="Synchronized Monitor">
    <mxGraphModel dx="2074" dy="1214" grid="1" gridSize="10" guides="1" tooltips="1" connect="1" arrows="1" fold="1" page="1" pageScale="1" pageWidth="827" pageHeight="1169" math="0" shadow="0">
      <root>
        <mxCell id="0" />
        <mxCell id="1" parent="0" />
        <mxCell id="-W-_QHEfw8zDfPuBKlOT-4" style="edgeStyle=orthogonalEdgeStyle;rounded=0;orthogonalLoop=1;jettySize=auto;html=1;entryX=0;entryY=0.5;entryDx=0;entryDy=0;strokeWidth=3;fillColor=#60a917;strokeColor=#2D7600;" parent="1" source="-W-_QHEfw8zDfPuBKlOT-1" target="-W-_QHEfw8zDfPuBKlOT-2" edge="1">
          <mxGeometry relative="1" as="geometry" />
        </mxCell>
        <mxCell id="-W-_QHEfw8zDfPuBKlOT-1" value="监视器&lt;div style=&quot;font-size: 15px;&quot;&gt;Monitor&lt;/div&gt;" style="rounded=1;whiteSpace=wrap;html=1;fontSize=15;" parent="1" vertex="1">
          <mxGeometry x="240" y="270" width="120" height="60" as="geometry" />
        </mxCell>
        <mxCell id="kfH3TKp8yjwosc-ZdJUn-1" style="edgeStyle=orthogonalEdgeStyle;rounded=0;orthogonalLoop=1;jettySize=auto;html=1;strokeColor=#2D7600;strokeWidth=3;align=center;verticalAlign=middle;fontFamily=Helvetica;fontSize=11;fontColor=default;labelBackgroundColor=default;endArrow=classic;fillColor=#60a917;" edge="1" parent="1" source="-W-_QHEfw8zDfPuBKlOT-2">
          <mxGeometry relative="1" as="geometry">
            <mxPoint x="760" y="300" as="targetPoint" />
          </mxGeometry>
        </mxCell>
        <mxCell id="-W-_QHEfw8zDfPuBKlOT-2" value="对象&lt;div style=&quot;font-size: 15px;&quot;&gt;Object&lt;/div&gt;" style="rounded=1;whiteSpace=wrap;html=1;fontSize=15;" parent="1" vertex="1">
          <mxGeometry x="520" y="270" width="120" height="60" as="geometry" />
        </mxCell>
        <mxCell id="-W-_QHEfw8zDfPuBKlOT-17" style="edgeStyle=orthogonalEdgeStyle;rounded=0;orthogonalLoop=1;jettySize=auto;html=1;exitX=0;exitY=0.5;exitDx=0;exitDy=0;fillColor=#dae8fc;strokeColor=#6c8ebf;strokeWidth=3;" parent="1" edge="1">
          <mxGeometry relative="1" as="geometry">
            <mxPoint x="140" y="300" as="targetPoint" />
            <mxPoint x="230" y="510" as="sourcePoint" />
            <Array as="points">
              <mxPoint x="141" y="510" />
            </Array>
          </mxGeometry>
        </mxCell>
        <mxCell id="-W-_QHEfw8zDfPuBKlOT-3" value="同步队列&lt;div style=&quot;font-size: 15px;&quot;&gt;SynchroizedQueue&lt;/div&gt;" style="rounded=1;whiteSpace=wrap;html=1;fontSize=15;" parent="1" vertex="1">
          <mxGeometry x="225" y="480" width="150" height="60" as="geometry" />
        </mxCell>
        <mxCell id="-W-_QHEfw8zDfPuBKlOT-6" value="" style="endArrow=classic;html=1;rounded=0;endFill=1;fillColor=#e6d0de;strokeColor=#996185;strokeWidth=3;gradientColor=#d5739d;entryX=0;entryY=0.5;entryDx=0;entryDy=0;" parent="1" target="-W-_QHEfw8zDfPuBKlOT-1" edge="1">
          <mxGeometry width="50" height="50" relative="1" as="geometry">
            <mxPoint x="60" y="300" as="sourcePoint" />
            <mxPoint x="210" y="299.5" as="targetPoint" />
          </mxGeometry>
        </mxCell>
        <mxCell id="-W-_QHEfw8zDfPuBKlOT-8" value="Monitor.Enter" style="text;html=1;align=center;verticalAlign=middle;whiteSpace=wrap;rounded=0;fillColor=#e6d0de;gradientColor=#d5739d;strokeColor=#996185;" parent="1" vertex="1">
          <mxGeometry x="90" y="275" width="90" height="20" as="geometry" />
        </mxCell>
        <mxCell id="-W-_QHEfw8zDfPuBKlOT-9" value="Monitor.Enter 成功" style="text;html=1;align=center;verticalAlign=middle;whiteSpace=wrap;rounded=0;fillColor=#60a917;fontColor=#ffffff;strokeColor=#2D7600;" parent="1" vertex="1">
          <mxGeometry x="380" y="275" width="110" height="20" as="geometry" />
        </mxCell>
        <mxCell id="-W-_QHEfw8zDfPuBKlOT-11" value="Monitor.Enter 失败&lt;div&gt;线程状态变为 BLOCKED&lt;/div&gt;" style="text;html=1;align=center;verticalAlign=middle;whiteSpace=wrap;rounded=0;fillColor=#e51400;fontColor=#ffffff;strokeColor=#B20000;" parent="1" vertex="1">
          <mxGeometry x="307" y="400" width="153" height="40" as="geometry" />
        </mxCell>
        <mxCell id="-W-_QHEfw8zDfPuBKlOT-13" value="Monitor.Exit 后通知&lt;div&gt;出队列&lt;/div&gt;" style="text;html=1;align=center;verticalAlign=middle;whiteSpace=wrap;rounded=0;fillColor=#dae8fc;strokeColor=#6c8ebf;" parent="1" vertex="1">
          <mxGeometry x="150" y="390" width="110" height="40" as="geometry" />
        </mxCell>
        <mxCell id="-W-_QHEfw8zDfPuBKlOT-16" style="edgeStyle=orthogonalEdgeStyle;rounded=0;orthogonalLoop=1;jettySize=auto;html=1;exitX=0.5;exitY=1;exitDx=0;exitDy=0;entryX=0.5;entryY=0;entryDx=0;entryDy=0;strokeWidth=3;fillColor=#e51400;strokeColor=#B20000;" parent="1" source="-W-_QHEfw8zDfPuBKlOT-1" target="-W-_QHEfw8zDfPuBKlOT-3" edge="1">
          <mxGeometry relative="1" as="geometry" />
        </mxCell>
        <mxCell id="kfH3TKp8yjwosc-ZdJUn-2" value="Monitor.Exit" style="text;html=1;align=center;verticalAlign=middle;whiteSpace=wrap;rounded=0;fillColor=#60a917;fontColor=#ffffff;strokeColor=#2D7600;" vertex="1" parent="1">
          <mxGeometry x="650" y="275" width="80" height="20" as="geometry" />
        </mxCell>
      </root>
    </mxGraphModel>
  </diagram>
  <diagram id="8hz4jY3EWCgl_PPEbEoD" name="wait/notify 运行过程">
    <mxGraphModel dx="1383" dy="809" grid="1" gridSize="10" guides="1" tooltips="1" connect="1" arrows="1" fold="1" page="1" pageScale="1" pageWidth="827" pageHeight="1169" math="0" shadow="0">
      <root>
        <mxCell id="0" />
        <mxCell id="1" parent="0" />
        <mxCell id="sdDh1XoqjCZwxvi1jh60-18" style="edgeStyle=orthogonalEdgeStyle;rounded=0;orthogonalLoop=1;jettySize=auto;html=1;entryX=0.5;entryY=1;entryDx=0;entryDy=0;strokeColor=#6c8ebf;strokeWidth=3;align=center;verticalAlign=middle;fontFamily=Helvetica;fontSize=11;fontColor=default;labelBackgroundColor=default;endArrow=classic;fillColor=#dae8fc;" edge="1" parent="1" source="FVPmDV9AtMqVQsSLIKlo-12" target="sdDh1XoqjCZwxvi1jh60-6">
          <mxGeometry relative="1" as="geometry" />
        </mxCell>
        <mxCell id="FVPmDV9AtMqVQsSLIKlo-12" value="等待队列&lt;div&gt;WaitQueue&lt;/div&gt;" style="rounded=1;whiteSpace=wrap;html=1;fontSize=15;" vertex="1" parent="1">
          <mxGeometry x="225" y="630" width="150" height="60" as="geometry" />
        </mxCell>
        <mxCell id="sdDh1XoqjCZwxvi1jh60-1" style="edgeStyle=orthogonalEdgeStyle;rounded=0;orthogonalLoop=1;jettySize=auto;html=1;entryX=0;entryY=0.75;entryDx=0;entryDy=0;strokeWidth=3;fillColor=#ffcd28;strokeColor=#d79b00;align=center;verticalAlign=middle;fontFamily=Helvetica;fontSize=11;fontColor=default;labelBackgroundColor=default;endArrow=classic;endFill=1;gradientColor=#ffa500;exitX=1;exitY=0.75;exitDx=0;exitDy=0;" edge="1" parent="1" source="sdDh1XoqjCZwxvi1jh60-2" target="sdDh1XoqjCZwxvi1jh60-4">
          <mxGeometry relative="1" as="geometry" />
        </mxCell>
        <mxCell id="sdDh1XoqjCZwxvi1jh60-22" style="edgeStyle=orthogonalEdgeStyle;rounded=0;orthogonalLoop=1;jettySize=auto;html=1;exitX=0;exitY=0.25;exitDx=0;exitDy=0;startArrow=classic;startFill=1;endArrow=none;endFill=0;strokeColor=#279166;strokeWidth=3;align=center;verticalAlign=middle;fontFamily=Helvetica;fontSize=11;fontColor=default;labelBackgroundColor=default;fillColor=#ffcd28;gradientColor=#ffa500;" edge="1" parent="1" source="sdDh1XoqjCZwxvi1jh60-2">
          <mxGeometry relative="1" as="geometry">
            <mxPoint x="100" y="195" as="targetPoint" />
          </mxGeometry>
        </mxCell>
        <mxCell id="sdDh1XoqjCZwxvi1jh60-23" style="edgeStyle=orthogonalEdgeStyle;rounded=0;orthogonalLoop=1;jettySize=auto;html=1;exitX=1;exitY=0.25;exitDx=0;exitDy=0;entryX=0;entryY=0.25;entryDx=0;entryDy=0;strokeColor=#279166;strokeWidth=3;align=center;verticalAlign=middle;fontFamily=Helvetica;fontSize=11;fontColor=default;labelBackgroundColor=default;startArrow=none;startFill=0;endArrow=classic;endFill=1;fillColor=#ffcd28;gradientColor=#ffa500;" edge="1" parent="1" source="sdDh1XoqjCZwxvi1jh60-2" target="sdDh1XoqjCZwxvi1jh60-4">
          <mxGeometry relative="1" as="geometry" />
        </mxCell>
        <mxCell id="sdDh1XoqjCZwxvi1jh60-2" value="监视器&lt;div style=&quot;font-size: 15px;&quot;&gt;Monitor&lt;/div&gt;" style="rounded=1;whiteSpace=wrap;html=1;fontSize=15;" vertex="1" parent="1">
          <mxGeometry x="240" y="150" width="120" height="180" as="geometry" />
        </mxCell>
        <mxCell id="sdDh1XoqjCZwxvi1jh60-16" style="edgeStyle=orthogonalEdgeStyle;rounded=0;orthogonalLoop=1;jettySize=auto;html=1;entryX=1;entryY=0.5;entryDx=0;entryDy=0;exitX=0.5;exitY=1;exitDx=0;exitDy=0;strokeColor=#d79b00;strokeWidth=3;align=center;verticalAlign=middle;fontFamily=Helvetica;fontSize=11;fontColor=default;labelBackgroundColor=default;endArrow=classic;endFill=1;fillColor=#ffcd28;gradientColor=#ffa500;" edge="1" parent="1" source="sdDh1XoqjCZwxvi1jh60-4" target="FVPmDV9AtMqVQsSLIKlo-12">
          <mxGeometry relative="1" as="geometry">
            <mxPoint x="580" y="670" as="targetPoint" />
          </mxGeometry>
        </mxCell>
        <mxCell id="sdDh1XoqjCZwxvi1jh60-20" style="edgeStyle=orthogonalEdgeStyle;rounded=0;orthogonalLoop=1;jettySize=auto;html=1;exitX=1;exitY=0.75;exitDx=0;exitDy=0;strokeColor=#d79b00;strokeWidth=3;align=center;verticalAlign=middle;fontFamily=Helvetica;fontSize=11;fontColor=default;labelBackgroundColor=default;endArrow=classic;endFill=1;fillColor=#ffcd28;gradientColor=#ffa500;" edge="1" parent="1" source="sdDh1XoqjCZwxvi1jh60-4">
          <mxGeometry relative="1" as="geometry">
            <mxPoint x="750" y="285" as="targetPoint" />
          </mxGeometry>
        </mxCell>
        <mxCell id="sdDh1XoqjCZwxvi1jh60-28" style="edgeStyle=orthogonalEdgeStyle;rounded=0;orthogonalLoop=1;jettySize=auto;html=1;exitX=1;exitY=0.25;exitDx=0;exitDy=0;strokeColor=#279166;strokeWidth=3;align=center;verticalAlign=middle;fontFamily=Helvetica;fontSize=11;fontColor=default;labelBackgroundColor=default;startArrow=none;startFill=0;endArrow=classic;endFill=1;fillColor=#ffcd28;gradientColor=#ffa500;" edge="1" parent="1" source="sdDh1XoqjCZwxvi1jh60-4">
          <mxGeometry relative="1" as="geometry">
            <mxPoint x="750" y="195" as="targetPoint" />
          </mxGeometry>
        </mxCell>
        <mxCell id="sdDh1XoqjCZwxvi1jh60-33" style="edgeStyle=orthogonalEdgeStyle;rounded=0;orthogonalLoop=1;jettySize=auto;html=1;exitX=0.25;exitY=1;exitDx=0;exitDy=0;entryX=1;entryY=0.5;entryDx=0;entryDy=0;strokeColor=#279166;strokeWidth=3;align=center;verticalAlign=middle;fontFamily=Helvetica;fontSize=11;fontColor=default;labelBackgroundColor=default;startArrow=none;startFill=0;endArrow=classic;endFill=1;fillColor=#ffcd28;gradientColor=#ffa500;" edge="1" parent="1" source="sdDh1XoqjCZwxvi1jh60-4" target="sdDh1XoqjCZwxvi1jh60-19">
          <mxGeometry relative="1" as="geometry" />
        </mxCell>
        <mxCell id="sdDh1XoqjCZwxvi1jh60-4" value="对象&lt;div style=&quot;font-size: 15px;&quot;&gt;Object&lt;/div&gt;" style="rounded=1;whiteSpace=wrap;html=1;fontSize=15;" vertex="1" parent="1">
          <mxGeometry x="520" y="150" width="120" height="180" as="geometry" />
        </mxCell>
        <mxCell id="sdDh1XoqjCZwxvi1jh60-5" style="edgeStyle=orthogonalEdgeStyle;rounded=0;orthogonalLoop=1;jettySize=auto;html=1;exitX=0;exitY=0.5;exitDx=0;exitDy=0;fillColor=#dae8fc;strokeColor=#6c8ebf;strokeWidth=3;entryX=0.25;entryY=1;entryDx=0;entryDy=0;" edge="1" parent="1" target="sdDh1XoqjCZwxvi1jh60-2">
          <mxGeometry relative="1" as="geometry">
            <mxPoint x="140" y="300" as="targetPoint" />
            <mxPoint x="230" y="510" as="sourcePoint" />
            <Array as="points">
              <mxPoint x="141" y="510" />
              <mxPoint x="141" y="370" />
              <mxPoint x="270" y="370" />
            </Array>
          </mxGeometry>
        </mxCell>
        <mxCell id="sdDh1XoqjCZwxvi1jh60-6" value="同步队列&lt;div style=&quot;font-size: 15px;&quot;&gt;SynchroizedQueue&lt;/div&gt;" style="rounded=1;whiteSpace=wrap;html=1;fontSize=15;" vertex="1" parent="1">
          <mxGeometry x="225" y="480" width="150" height="60" as="geometry" />
        </mxCell>
        <mxCell id="sdDh1XoqjCZwxvi1jh60-7" value="" style="endArrow=classic;html=1;rounded=0;endFill=1;fillColor=#ffcd28;strokeColor=#d79b00;strokeWidth=3;entryX=0.008;entryY=0.833;entryDx=0;entryDy=0;gradientColor=#ffa500;entryPerimeter=0;" edge="1" parent="1">
          <mxGeometry width="50" height="50" relative="1" as="geometry">
            <mxPoint x="99.04" y="282.5" as="sourcePoint" />
            <mxPoint x="240.00000000000003" y="282.44000000000005" as="targetPoint" />
          </mxGeometry>
        </mxCell>
        <mxCell id="sdDh1XoqjCZwxvi1jh60-8" value="Monitor.Enter" style="text;html=1;align=center;verticalAlign=middle;whiteSpace=wrap;rounded=0;fillColor=#e6d0de;gradientColor=#d5739d;strokeColor=#996185;" vertex="1" parent="1">
          <mxGeometry x="129.04" y="257.5" width="90" height="20" as="geometry" />
        </mxCell>
        <mxCell id="sdDh1XoqjCZwxvi1jh60-9" value="Monitor.Enter 成功" style="text;html=1;align=center;verticalAlign=middle;whiteSpace=wrap;rounded=0;fillColor=#60a917;fontColor=#ffffff;strokeColor=#2D7600;" vertex="1" parent="1">
          <mxGeometry x="375" y="257.5" width="110" height="20" as="geometry" />
        </mxCell>
        <mxCell id="sdDh1XoqjCZwxvi1jh60-10" value="Monitor.Enter 失败&lt;div&gt;线程状态变为 BLOCKED&lt;/div&gt;" style="text;html=1;align=center;verticalAlign=middle;whiteSpace=wrap;rounded=0;fillColor=#e51400;fontColor=#ffffff;strokeColor=#B20000;" vertex="1" parent="1">
          <mxGeometry x="307" y="400" width="153" height="40" as="geometry" />
        </mxCell>
        <mxCell id="sdDh1XoqjCZwxvi1jh60-11" value="Monitor.Exit 后通知&lt;div&gt;出队列&lt;/div&gt;" style="text;html=1;align=center;verticalAlign=middle;whiteSpace=wrap;rounded=0;fillColor=#dae8fc;strokeColor=#6c8ebf;" vertex="1" parent="1">
          <mxGeometry x="150" y="430" width="110" height="40" as="geometry" />
        </mxCell>
        <mxCell id="sdDh1XoqjCZwxvi1jh60-12" style="edgeStyle=orthogonalEdgeStyle;rounded=0;orthogonalLoop=1;jettySize=auto;html=1;exitX=0.5;exitY=1;exitDx=0;exitDy=0;entryX=0.5;entryY=0;entryDx=0;entryDy=0;strokeWidth=3;fillColor=#e51400;strokeColor=#B20000;" edge="1" parent="1" source="sdDh1XoqjCZwxvi1jh60-2" target="sdDh1XoqjCZwxvi1jh60-6">
          <mxGeometry relative="1" as="geometry" />
        </mxCell>
        <mxCell id="sdDh1XoqjCZwxvi1jh60-13" value="Monitor.Exit" style="text;html=1;align=center;verticalAlign=middle;whiteSpace=wrap;rounded=0;fillColor=#60a917;fontColor=#ffffff;strokeColor=#2D7600;" vertex="1" parent="1">
          <mxGeometry x="650" y="257.5" width="80" height="20" as="geometry" />
        </mxCell>
        <mxCell id="sdDh1XoqjCZwxvi1jh60-14" value="WaitThread" style="text;html=1;align=center;verticalAlign=middle;whiteSpace=wrap;rounded=0;fillColor=#ffcd28;gradientColor=#ffa500;strokeColor=#d79b00;" vertex="1" parent="1">
          <mxGeometry x="29.04" y="272.5" width="70" height="20" as="geometry" />
        </mxCell>
        <mxCell id="sdDh1XoqjCZwxvi1jh60-17" value="Object.wait()" style="text;html=1;align=center;verticalAlign=middle;whiteSpace=wrap;rounded=0;fillColor=#ffcd28;gradientColor=#ffa500;strokeColor=#d79b00;" vertex="1" parent="1">
          <mxGeometry x="590" y="490" width="70" height="20" as="geometry" />
        </mxCell>
        <mxCell id="sdDh1XoqjCZwxvi1jh60-19" value="由等待队列迁移至同步队列" style="text;html=1;align=center;verticalAlign=middle;whiteSpace=wrap;rounded=0;fillColor=#dae8fc;strokeColor=#6c8ebf;" vertex="1" parent="1">
          <mxGeometry x="303.5" y="585" width="160" height="20" as="geometry" />
        </mxCell>
        <mxCell id="sdDh1XoqjCZwxvi1jh60-24" value="NotifyThread" style="text;html=1;align=center;verticalAlign=middle;whiteSpace=wrap;rounded=0;fillColor=#279166;gradientColor=none;strokeColor=#d79b00;fontColor=#FFFFFF;" vertex="1" parent="1">
          <mxGeometry x="19.04" y="184" width="80" height="20" as="geometry" />
        </mxCell>
        <mxCell id="sdDh1XoqjCZwxvi1jh60-26" value="Monitor.Enter" style="text;html=1;align=center;verticalAlign=middle;whiteSpace=wrap;rounded=0;fillColor=#e6d0de;gradientColor=#d5739d;strokeColor=#996185;" vertex="1" parent="1">
          <mxGeometry x="129.04" y="170" width="90" height="20" as="geometry" />
        </mxCell>
        <mxCell id="sdDh1XoqjCZwxvi1jh60-27" value="Monitor.Enter 成功" style="text;html=1;align=center;verticalAlign=middle;whiteSpace=wrap;rounded=0;fillColor=#60a917;fontColor=#ffffff;strokeColor=#2D7600;" vertex="1" parent="1">
          <mxGeometry x="375" y="170" width="110" height="20" as="geometry" />
        </mxCell>
        <mxCell id="sdDh1XoqjCZwxvi1jh60-29" value="Monitor.Exit" style="text;html=1;align=center;verticalAlign=middle;whiteSpace=wrap;rounded=0;fillColor=#60a917;fontColor=#ffffff;strokeColor=#2D7600;" vertex="1" parent="1">
          <mxGeometry x="650" y="170" width="80" height="20" as="geometry" />
        </mxCell>
        <mxCell id="sdDh1XoqjCZwxvi1jh60-31" style="edgeStyle=orthogonalEdgeStyle;rounded=0;orthogonalLoop=1;jettySize=auto;html=1;exitX=0.25;exitY=0;exitDx=0;exitDy=0;entryX=0.75;entryY=0;entryDx=0;entryDy=0;strokeColor=#279166;strokeWidth=3;align=center;verticalAlign=middle;fontFamily=Helvetica;fontSize=11;fontColor=default;labelBackgroundColor=default;startArrow=none;startFill=0;endArrow=classic;endFill=1;fillColor=#ffcd28;gradientColor=#ffa500;" edge="1" parent="1" source="sdDh1XoqjCZwxvi1jh60-4" target="sdDh1XoqjCZwxvi1jh60-4">
          <mxGeometry relative="1" as="geometry">
            <Array as="points">
              <mxPoint x="550" y="120" />
              <mxPoint x="610" y="120" />
            </Array>
          </mxGeometry>
        </mxCell>
        <mxCell id="sdDh1XoqjCZwxvi1jh60-32" value="Object.notify()&lt;div&gt;Object.notifyAll()&lt;/div&gt;" style="text;html=1;align=left;verticalAlign=middle;whiteSpace=wrap;rounded=0;fillColor=#279166;gradientColor=none;strokeColor=#d79b00;fontColor=#FFFFFF;" vertex="1" parent="1">
          <mxGeometry x="540" y="73" width="96" height="40" as="geometry" />
        </mxCell>
      </root>
    </mxGraphModel>
  </diagram>
</mxfile>
